<svg id="Capa_1" enable-background="new 0 0 512 512" height="512" viewBox="0 0 512 512" width="512" xmlns="http://www.w3.org/2000/svg"><g id="Student"><path d="m512 512h-512v-96c0-53.019 42.981-96 96-96h320c53.019 0 96 42.981 96 96z" fill="#80eaff"/><g fill="#4db5ff"><path d="m256 480-96-160h192z"/><path d="m64 448h32v64h-32z"/><path d="m416 448h32v64h-32z"/></g><path d="m160 96v96c0 41.738 26.799 76.896 64 90.121v37.879h64v-37.879c37.201-13.225 64-48.383 64-90.121v-96z" fill="#80eaff"/><path d="m224 320h64v32h-64z" fill="#37f"/><path d="m448 0v32h-96v64l-96 32-96-32v-64h-96v-32z" fill="#4db5ff"/></g></svg>